<svg width="15" height="14" viewBox="0 0 15 14" fill="none" xmlns="http://www.w3.org/2000/svg">
<path d="M8.15625 13.8125C8.03125 13.9688 7.78125 13.9688 7.625 13.8125L1.09375 7.28125C0.9375 7.125 0.9375 6.90625 1.09375 6.75L7.625 0.21875C7.78125 0.0625 8.03125 0.0625 8.15625 0.21875L8.78125 0.8125C8.9375 0.96875 8.9375 1.21875 8.78125 1.34375L3.9375 6.1875H14.625C14.8125 6.1875 15 6.375 15 6.5625V7.4375C15 7.65625 14.8125 7.8125 14.625 7.8125H3.9375L8.78125 12.6875C8.9375 12.8125 8.9375 13.0625 8.78125 13.2188L8.15625 13.8125Z" fill="black"/>
</svg>
