<svg width="24" height="22" viewBox="0 0 24 22" fill="none" xmlns="http://www.w3.org/2000/svg">
<path d="M16.0312 5.75L14.9062 2.75H9.04688L7.92188 5.75H2.25V19.25H21.75V5.75H16.0312ZM15.1875 0.5C15.9844 0.5 16.6406 1.01562 16.9219 1.71875L17.625 3.5H21.75C22.9688 3.5 24 4.53125 24 5.75V19.25C24 20.5156 22.9688 21.5 21.75 21.5H2.25C0.984375 21.5 0 20.5156 0 19.25V5.75C0 4.53125 0.984375 3.5 2.25 3.5H6.375L6.9375 2C7.26562 1.10938 8.10938 0.5 9.04688 0.5H15.1875ZM12 18.125C8.85938 18.125 6.375 15.6406 6.375 12.5C6.375 9.40625 8.85938 6.875 12 6.875C15.0938 6.875 17.625 9.40625 17.625 12.5C17.625 15.6406 15.0938 18.125 12 18.125ZM12 9.125C10.125 9.125 8.625 10.6719 8.625 12.5C8.625 14.375 10.125 15.875 12 15.875C13.8281 15.875 15.375 14.375 15.375 12.5C15.375 10.6719 13.8281 9.125 12 9.125Z" fill="white"/>
</svg>
