<svg width="20" height="21" viewBox="0 0 20 21" fill="none" xmlns="http://www.w3.org/2000/svg">
<path d="M19.6875 10.5C19.6875 15.8516 15.3125 20.1875 10 20.1875C7.69531 20.2266 5.54688 19.4062 3.90625 18.0781C3.47656 17.7266 3.4375 17.0625 3.82812 16.6719L4.25781 16.2422C4.60938 15.8906 5.15625 15.8516 5.50781 16.1641C6.75781 17.1406 8.28125 17.6875 10 17.6875C13.9453 17.6875 17.1875 14.4844 17.1875 10.5C17.1875 6.55469 13.9453 3.3125 10 3.3125C8.08594 3.3125 6.32812 4.05469 5.03906 5.26562L7.03125 7.25781C7.42188 7.64844 7.14844 8.3125 6.60156 8.3125H0.9375C0.585938 8.3125 0.3125 8.03906 0.3125 7.6875V2.02344C0.3125 1.47656 0.976562 1.20312 1.36719 1.59375L3.28125 3.50781C5.03906 1.86719 7.38281 0.8125 10 0.8125C15.3125 0.8125 19.6484 5.14844 19.6875 10.5ZM12.6172 13.5859C12.2656 13.9766 11.6797 14.0547 11.2891 13.7422L8.75 11.75V6.4375C8.75 5.92969 9.14062 5.5 9.6875 5.5H10.3125C10.8203 5.5 11.25 5.92969 11.25 6.4375V10.5391L12.8125 11.7891C13.2422 12.1016 13.3203 12.6875 12.9688 13.0781L12.6172 13.5859Z" fill="#4AD594"/>
</svg>
