<svg width="20" height="21" viewBox="0 0 20 21" fill="none" xmlns="http://www.w3.org/2000/svg">
<path d="M19.6875 10.5C19.6875 15.8516 15.3125 20.1875 10 20.1875C7.5 20.2266 5.19531 19.25 3.47656 17.7266C3.28125 17.5312 3.28125 17.2188 3.47656 17.0234L4.14062 16.3594C4.29688 16.2031 4.60938 16.2031 4.76562 16.3594C6.17188 17.5703 7.96875 18.3125 10 18.3125C14.2969 18.3125 17.8125 14.8359 17.8125 10.5C17.8125 6.20312 14.2969 2.6875 10 2.6875C7.8125 2.6875 5.85938 3.58594 4.45312 5.03125L6.36719 6.90625C6.64062 7.17969 6.44531 7.6875 6.01562 7.6875H1.01562C0.742188 7.6875 0.546875 7.49219 0.546875 7.21875V2.29688C0.546875 1.86719 1.05469 1.67188 1.32812 1.94531L3.08594 3.70312C4.84375 1.94531 7.30469 0.8125 10 0.8125C15.3125 0.8125 19.6484 5.14844 19.6875 10.5ZM13.125 14.0156C13.0078 14.25 12.6953 14.2891 12.5 14.1328L9.0625 11.6328V5.03125C9.0625 4.79688 9.25781 4.5625 9.53125 4.5625H10.4688C10.7031 4.5625 10.9375 4.79688 10.9375 5.03125V10.6562L13.5938 12.6094C13.7891 12.7656 13.8281 13.0391 13.7109 13.2734L13.125 14.0156Z" fill="#222222"/>
</svg>
