<svg width="23" height="19" viewBox="0 0 23 19" fill="none" xmlns="http://www.w3.org/2000/svg">
<path d="M22.2656 9.1875C22.3828 9.30469 22.5 9.46094 22.5 9.65625C22.5 9.8125 22.4219 9.96875 22.3438 10.0469L21.9531 10.5547C21.8359 10.6719 21.6406 10.7891 21.4453 10.7891C21.2891 10.7891 21.1719 10.7109 21.0547 10.6328L20 9.73438V17.0391C19.9609 17.7031 19.4141 18.25 18.75 18.25H13.75C13.0469 18.25 12.5 17.7031 12.5 17V12.9375H10V17C9.96094 17.7031 9.41406 18.25 8.75 18.25H3.75C3.04688 18.25 2.5 17.7031 2.5 17V9.73438L1.40625 10.6328C1.28906 10.7109 1.17188 10.75 1.01562 10.75C0.820312 10.75 0.625 10.6719 0.546875 10.5547L0.117188 10.0469C0.0390625 9.96875 0 9.8125 0 9.65625C0 9.46094 0.078125 9.30469 0.195312 9.1875L9.84375 1.25781C10.1953 0.945312 10.7031 0.789062 11.25 0.789062C11.7578 0.789062 12.2656 0.945312 12.6172 1.25781L18.125 5.78906V3.5625C18.125 3.40625 18.2422 3.28906 18.4375 3.25H19.6875C19.8438 3.25 20 3.40625 20 3.5625V7.3125L22.2656 9.1875ZM18.0859 16.375L18.125 8.21094L11.25 2.54688L4.375 8.21094V16.375H8.125V12.3125C8.125 11.6484 8.67188 11.1016 9.375 11.0625H13.125C13.7891 11.1016 14.3359 11.6484 14.375 12.3125V16.375H18.0859Z" fill="#222222"/>
</svg>
