<svg width="24" height="19" viewBox="0 0 24 19" fill="none" xmlns="http://www.w3.org/2000/svg">
<path d="M11.9375 5.32031C12.0156 5.24219 12.1328 5.20312 12.25 5.20312C12.3281 5.20312 12.4453 5.24219 12.5234 5.32031L19.75 11.2188V17.625C19.75 17.9766 19.4375 18.25 19.125 18.25H14.7109C14.3984 18.25 14.0859 17.9766 14.0859 17.625V13.875C14.0859 13.5625 13.8125 13.25 13.4609 13.25H10.9609C10.6484 13.25 10.3359 13.5625 10.3359 13.875V17.625C10.3359 17.9766 10.0625 18.25 9.75 18.25H5.375C5.02344 18.25 4.75 17.9766 4.75 17.625V11.2578L11.9375 5.32031ZM23.3047 9.34375C23.4219 9.42188 23.5 9.57812 23.5 9.69531C23.5 9.8125 23.4609 9.92969 23.3828 10.0078L22.3672 11.2188C22.2891 11.3359 22.1719 11.375 22.0156 11.375C21.8984 11.375 21.7812 11.3359 21.7031 11.2578L12.5234 3.71875C12.4453 3.64062 12.3281 3.60156 12.25 3.60156C12.1328 3.60156 12.0156 3.64062 11.9375 3.71875L2.75781 11.2578C2.67969 11.3359 2.5625 11.375 2.44531 11.375C2.28906 11.375 2.17188 11.3359 2.09375 11.2188L1.07812 10.0078C1.03906 9.92969 0.960938 9.8125 0.960938 9.69531C0.960938 9.57812 1.03906 9.42188 1.15625 9.34375L11.0391 1.17969C11.3516 0.945312 11.7812 0.789062 12.25 0.789062C12.6797 0.789062 13.1094 0.945312 13.4219 1.17969L16.9375 4.07031V1.25781C16.9375 0.984375 17.1328 0.789062 17.4062 0.789062H19.5938C19.8281 0.789062 20.0625 0.984375 20.0625 1.25781V6.64844L23.3047 9.34375Z" fill="#4AD594"/>
</svg>
