<svg width="15" height="16" viewBox="0 0 15 16" fill="none" xmlns="http://www.w3.org/2000/svg">
<path d="M3.25195 2.28125L3.28125 5.5625H1.875V4.71289V2.28125C1.875 1.51953 2.49023 0.875 3.25195 0.875H10.7227C11.0742 0.875 11.4551 1.05078 11.7188 1.31445L12.6855 2.28125C12.9492 2.54492 13.125 2.92578 13.125 3.27734V5.5625H11.7188V3.27734L10.6934 2.28125H3.25195ZM12.8906 6.5C14.0332 6.5 15 7.4668 15 8.60938V11.8906C15 12.3008 14.6777 12.5938 14.2969 12.5938H12.6562V14.9375C12.6562 15.4648 12.2168 15.875 11.7188 15.875H3.28125C2.75391 15.875 2.34375 15.4648 2.34375 14.9375V12.5938H0.703125C0.292969 12.5938 0 12.3008 0 11.8906V8.60938C0 7.4668 0.9375 6.5 2.10938 6.5H12.8906ZM11.25 14.4688V11.6562H3.75V14.4688H11.25ZM13.5938 11.1875V8.60938C13.5938 8.22852 13.2715 7.90625 12.8906 7.90625H2.10938C1.69922 7.90625 1.40625 8.22852 1.40625 8.60938V11.1875H2.34375C2.34375 10.6895 2.75391 10.25 3.28125 10.25H11.7188C12.2168 10.25 12.6562 10.6895 12.6562 11.1875H13.5938Z" fill="white"/>
</svg>
