<?xml version="1.0" encoding="utf-8"?>
<!-- Generator: Adobe Illustrator 24.0.2, SVG Export Plug-In . SVG Version: 6.00 Build 0)  -->
<svg version="1.0" id="Layer_1" xmlns="http://www.w3.org/2000/svg" xmlns:xlink="http://www.w3.org/1999/xlink" x="0px" y="0px"
	 viewBox="0 0 300 280" enable-background="new 0 0 300 280" xml:space="preserve">
<g>
	<path fill-rule="evenodd" clip-rule="evenodd" fill="#DC7E27" d="M193.4,127.51c-6.54-0.26-10.62,4.31-17.29,3.52
		c-5.29-0.62-7.78-4.2-14.73-3.52c-5.91,0.58-9.71,4.14-14.73,3.52c-5.14-0.64-8.73-4.57-16.01-3.2c-3.19,0.6-5.58,2.74-8.97,3.2
		c-6.86,0.94-10.81-3.53-17.29-3.84c-0.95-15.18,4.72-27.14,12.81-35.23c7.56-7.56,19.22-13.76,34.58-12.81
		C176.47,80.69,194.08,100.22,193.4,127.51z"/>
	<path fill-rule="evenodd" clip-rule="evenodd" fill="#DC7E27" d="M83.88,120.78c8.88-3.52,10.98-19.39,6.08-28.18
		c-6.39-11.46-25.04-11.14-42.27-10.57c-0.37,0.06-0.34,0.51-0.32,0.96v82.94c15.22-0.8,29.68,2.36,39.71-4.49
		c3.29-2.24,6.66-6.27,8.33-10.57C100.2,138.47,95.01,123.12,83.88,120.78z M59.22,94.2c0-0.08,0-0.15,0.01-0.22
		c0.02-0.18,0.08-0.32,0.16-0.43v-0.01c0.09-0.11,0.19-0.19,0.32-0.25c0.05-0.02,0.1-0.04,0.15-0.06c5.19,0.1,9.96-0.06,13.64,0.96
		c0.5,0.14,0.98,0.29,1.45,0.48c1.07,0.43,2.03,1,2.84,1.76v0.01c0.13,0.12,0.26,0.25,0.39,0.39c3.96,4.26,3.62,13.67-0.7,17.22
		c-0.84,0.69-1.75,1.22-2.72,1.63c-0.32,0.14-0.65,0.26-0.99,0.37c-0.17,0.06-0.33,0.11-0.51,0.16c-0.34,0.1-0.69,0.18-1.05,0.26
		c-0.35,0.08-0.71,0.14-1.08,0.2c-0.37,0.06-0.74,0.11-1.12,0.15c-3.2,0.37-6.77,0.22-10.47,0.43
		C58.8,110.21,59.43,101.78,59.22,94.2z M85.31,142.8c-0.01,0.12-0.02,0.24-0.03,0.37c-0.03,0.42-0.08,0.84-0.14,1.25
		c-0.02,0.15-0.05,0.29-0.07,0.44c-0.03,0.15-0.05,0.29-0.08,0.44c-0.05,0.23-0.1,0.46-0.15,0.68c-0.05,0.17-0.09,0.34-0.14,0.51
		c-0.1,0.33-0.2,0.65-0.32,0.97c-0.06,0.16-0.12,0.31-0.18,0.47c-0.09,0.21-0.18,0.41-0.27,0.61c-0.08,0.17-0.17,0.33-0.25,0.49
		c-0.03,0.06-0.07,0.12-0.1,0.18c-0.06,0.11-0.12,0.21-0.19,0.32c-0.05,0.09-0.11,0.17-0.17,0.26c-0.09,0.14-0.18,0.27-0.28,0.4
		c0,0,0,0,0,0.01c-0.13,0.17-0.26,0.33-0.4,0.48c-0.1,0.12-0.21,0.23-0.31,0.33c-0.11,0.11-0.22,0.22-0.34,0.32h-0.01
		c-0.08,0.07-0.15,0.13-0.23,0.2c-0.23,0.19-0.47,0.37-0.71,0.53c-0.12,0.09-0.25,0.17-0.38,0.24c-0.52,0.31-1.06,0.58-1.63,0.82
		c-0.29,0.12-0.58,0.23-0.88,0.33c-0.3,0.1-0.61,0.19-0.92,0.28c-0.16,0.04-0.32,0.08-0.48,0.12c-0.64,0.16-1.31,0.28-2,0.39
		c-0.01,0-0.01,0-0.01,0c-0.52,0.08-1.05,0.14-1.59,0.2c-0.03,0.01-0.06,0.01-0.09,0.01c-0.12,0.01-0.24,0.03-0.35,0.03
		c-0.04,0.01-0.07,0.01-0.11,0.01c-0.64,0.06-1.3,0.1-1.97,0.13c-0.67,0.03-1.35,0.05-2.05,0.06c-0.27,0.01-0.54,0.01-0.81,0.01
		c-1.54,0.02-3.12,0.01-4.75,0.01c-1.21,0-2.44,0.01-3.68,0.03v-26.97c0.01-0.12,0.02-0.22,0.05-0.31c0.03-0.1,0.07-0.19,0.13-0.26
		c0-0.01,0-0.01,0-0.01c0.11-0.15,0.27-0.25,0.47-0.31c1.31,0.01,2.62,0,3.92,0c1.43,0,2.83,0.01,4.21,0.06
		c0.4,0.01,0.79,0.03,1.19,0.05c0.08,0.01,0.16,0.01,0.24,0.01c0.34,0.02,0.69,0.04,1.02,0.07c0.15,0.02,0.3,0.03,0.44,0.04
		c0.25,0.02,0.5,0.05,0.75,0.07c0.33,0.04,0.66,0.07,0.98,0.11c0.11,0.02,0.21,0.03,0.31,0.05c0.37,0.05,0.73,0.11,1.08,0.17
		c0.1,0.02,0.19,0.04,0.28,0.05c0.26,0.05,0.52,0.1,0.77,0.16c0.01,0,0.02,0,0.03,0.01c0.25,0.06,0.5,0.12,0.75,0.18
		c0.08,0.02,0.16,0.05,0.24,0.07c0.52,0.15,1.03,0.31,1.52,0.5c0.13,0.05,0.26,0.1,0.4,0.16c0.26,0.11,0.52,0.22,0.77,0.35
		c0.16,0.08,0.31,0.15,0.46,0.24c0.09,0.05,0.18,0.1,0.27,0.15c0.12,0.07,0.24,0.14,0.35,0.21c0.3,0.19,0.59,0.39,0.86,0.6
		c0.03,0.02,0.06,0.05,0.1,0.08c0.11,0.09,0.22,0.17,0.32,0.26c0.01,0.01,0.02,0.02,0.03,0.02c0.13,0.12,0.26,0.23,0.39,0.35
		c0.13,0.13,0.26,0.26,0.39,0.39c0.12,0.13,0.24,0.27,0.36,0.41c0.06,0.08,0.12,0.15,0.18,0.23c0.15,0.18,0.29,0.38,0.42,0.57
		c0.05,0.08,0.1,0.15,0.15,0.23c0.07,0.12,0.14,0.23,0.21,0.35c0.06,0.1,0.11,0.19,0.16,0.29c0.13,0.23,0.25,0.47,0.36,0.71
		c0.08,0.17,0.15,0.34,0.23,0.51c0.02,0.04,0.04,0.08,0.05,0.12c0.09,0.21,0.17,0.44,0.25,0.65c0.09,0.24,0.17,0.48,0.24,0.72
		c0.08,0.25,0.15,0.49,0.21,0.75c0.05,0.17,0.09,0.33,0.12,0.51c0.03,0.13,0.06,0.25,0.08,0.38c0.04,0.18,0.08,0.36,0.11,0.54
		c0.04,0.21,0.07,0.43,0.1,0.64C85.33,140.16,85.39,141.5,85.31,142.8z"/>
	<path fill-rule="evenodd" clip-rule="evenodd" fill="#DC7E27" d="M244.63,87.8c-9.07-7.84-25.24-5.4-42.59-5.76
		c-0.37,0.06-0.34,0.51-0.32,0.96v82.94h11.85c0.21-11.21-0.43-23.27,0.32-33.95c23.18,1.81,39.13-6.01,38.75-25.94
		C252.48,97.84,248.98,91.55,244.63,87.8z M240.27,111.62c-0.13,0.53-0.29,1.05-0.49,1.56c-0.39,1-0.9,1.95-1.55,2.8
		c-0.19,0.25-0.4,0.49-0.61,0.73c-0.11,0.12-0.22,0.23-0.33,0.33c-0.11,0.11-0.23,0.22-0.35,0.32c-0.15,0.13-0.31,0.26-0.47,0.38
		c-0.08,0.06-0.16,0.12-0.24,0.18c-0.08,0.06-0.17,0.12-0.25,0.18c-0.17,0.11-0.34,0.22-0.52,0.33c-0.09,0.05-0.18,0.11-0.27,0.16
		c-0.09,0.06-0.18,0.11-0.28,0.15c-0.19,0.1-0.38,0.19-0.57,0.28c-0.79,0.37-1.63,0.67-2.53,0.94c-0.17,0.05-0.34,0.1-0.51,0.14
		c-0.33,0.09-0.67,0.17-1.01,0.24c-0.19,0.04-0.39,0.08-0.58,0.12c-0.47,0.09-0.95,0.17-1.45,0.24c-0.49,0.07-0.99,0.13-1.5,0.18
		c-0.03,0.01-0.06,0.01-0.09,0.01c-4.08,0.4-8.65,0.23-13.08-0.11v-26.9c0-0.05,0-0.09,0.01-0.13c0-0.04,0.01-0.08,0.01-0.11
		c0.01-0.05,0.02-0.1,0.03-0.15c0.01-0.05,0.03-0.1,0.06-0.14c0.04-0.09,0.1-0.16,0.17-0.23c0.07-0.07,0.14-0.11,0.23-0.15
		c0.05-0.02,0.1-0.04,0.15-0.06c7.89,0.33,15.19-0.89,20.81,2.56c0.17,0.11,0.34,0.22,0.51,0.34c0.09,0.07,0.17,0.13,0.26,0.2
		c0.26,0.2,0.51,0.42,0.76,0.66c0.05,0.05,0.1,0.1,0.15,0.15c0.12,0.12,0.23,0.24,0.34,0.37c0.11,0.13,0.22,0.25,0.33,0.39
		c0.17,0.22,0.34,0.44,0.5,0.67c0.06,0.09,0.12,0.18,0.18,0.27c0.06,0.09,0.12,0.18,0.17,0.27c0.12,0.18,0.23,0.37,0.33,0.56
		c0.12,0.22,0.24,0.45,0.36,0.68c0.12,0.23,0.23,0.47,0.33,0.71c0.05,0.12,0.1,0.24,0.15,0.37c0.05,0.12,0.1,0.24,0.15,0.37
		c0.1,0.25,0.19,0.5,0.27,0.76c0.05,0.15,0.1,0.3,0.14,0.45c0.03,0.09,0.06,0.19,0.08,0.28c0.06,0.2,0.11,0.41,0.16,0.62
		c0.06,0.23,0.11,0.46,0.15,0.69c0.14,0.69,0.24,1.4,0.3,2.11C240.8,108.15,240.69,109.94,240.27,111.62z"/>
	<path fill-rule="evenodd" clip-rule="evenodd" fill="#FFFFFF" d="M226.65,120.89c-4.08,0.41-8.66,0.23-13.08-0.11v-0.01
		C218,121.12,222.57,121.29,226.65,120.89z"/>
	<path fill-rule="evenodd" clip-rule="evenodd" fill="#FFFFFF" d="M228.23,120.7c0.49-0.07,0.97-0.15,1.45-0.24
		C229.21,120.55,228.73,120.63,228.23,120.7z"/>
	<path fill-rule="evenodd" clip-rule="evenodd" fill="#FFFFFF" d="M231.78,119.95c0.9-0.26,1.74-0.57,2.53-0.94
		C233.53,119.38,232.68,119.69,231.78,119.95z"/>
	<path fill-rule="evenodd" clip-rule="evenodd" fill="#FFFFFF" d="M238.23,115.98c0.65-0.85,1.16-1.8,1.55-2.8
		C239.39,114.18,238.88,115.12,238.23,115.98c-0.19,0.25-0.4,0.5-0.61,0.73C237.83,116.47,238.03,116.23,238.23,115.98z"/>
	<path fill-rule="evenodd" clip-rule="evenodd" fill="#FFFFFF" d="M240.66,106.39c-0.06-0.71-0.16-1.42-0.3-2.11
		C240.5,104.97,240.6,105.68,240.66,106.39z"/>
	<path fill-rule="evenodd" clip-rule="evenodd" fill="#FFFFFF" d="M59.22,127.75c0.01-0.12,0.02-0.21,0.05-0.31
		C59.24,127.54,59.22,127.64,59.22,127.75z"/>
	<path fill-rule="evenodd" clip-rule="evenodd" fill="#FFFFFF" d="M68.45,154.67c-1.78,0.04-3.65,0.02-5.55,0.02
		C64.81,154.69,66.67,154.7,68.45,154.67z"/>
	<path fill-rule="evenodd" clip-rule="evenodd" fill="#FFFFFF" d="M70.51,154.61c0.67-0.03,1.33-0.07,1.97-0.13
		C71.83,154.55,71.18,154.59,70.51,154.61z"/>
	<path fill-rule="evenodd" clip-rule="evenodd" fill="#FFFFFF" d="M73.03,154.43c1.45-0.15,2.81-0.37,4.08-0.71
		C75.84,154.07,74.48,154.29,73.03,154.43z"/>
	<path fill-rule="evenodd" clip-rule="evenodd" fill="#FFFFFF" d="M77.59,128.44c-0.49-0.19-1-0.35-1.52-0.5
		C76.59,128.08,77.1,128.25,77.59,128.44z"/>
	<path fill-rule="evenodd" clip-rule="evenodd" fill="#FFFFFF" d="M78.91,153.12c0.57-0.24,1.12-0.51,1.63-0.82
		C80.03,152.61,79.48,152.88,78.91,153.12z"/>
	<path fill-rule="evenodd" clip-rule="evenodd" fill="#FFFFFF" d="M79.83,129.55c0.3,0.18,0.58,0.38,0.86,0.6
		C80.42,129.94,80.13,129.74,79.83,129.55z"/>
	<path fill-rule="evenodd" clip-rule="evenodd" fill="#FFFFFF" d="M81.63,151.52c0.08-0.07,0.16-0.13,0.23-0.2
		C81.79,151.4,81.71,151.46,81.63,151.52c-0.23,0.19-0.47,0.37-0.71,0.53C81.17,151.88,81.41,151.71,81.63,151.52z"/>
	<path fill-rule="evenodd" clip-rule="evenodd" fill="#FFFFFF" d="M82.27,131.67c-0.12-0.14-0.24-0.28-0.36-0.41
		C82.04,131.39,82.16,131.53,82.27,131.67c0.07,0.08,0.13,0.15,0.18,0.23C82.4,131.82,82.33,131.74,82.27,131.67z"/>
	<path fill-rule="evenodd" clip-rule="evenodd" fill="#DC7E27" d="M192.76,132.31c0.46,3.88-3.83,3.39-6.08,4.16
		c-3.47,1.19-5.26,3.15-10.25,2.56c-6.26-0.73-8.64-4.83-16.97-3.2c-3.73,0.73-6.67,3.94-12.49,3.2c-5.47-0.69-7.96-4.35-15.37-3.52
		c-3.31,0.37-6.35,3.03-10.25,3.52c-6.92,0.88-10.77-3.85-16.01-3.84c0.43-1.2-0.95-2.21,0-2.88c5.06,0.52,9.56,3.92,15.37,3.52
		c4.79-0.33,8.73-4.52,15.69-3.52c4.19,0.6,7.5,3.3,11.21,3.52c7.62,0.46,10.09-4.92,18.57-3.52c4.99,0.82,7,3.99,13.45,3.52
		C184.62,135.47,187.04,132.36,192.76,132.31z"/>
	<path fill-rule="evenodd" clip-rule="evenodd" fill="#DC7E27" d="M190.52,140.32c-0.49,1.01-0.96,2.03-1.28,3.2
		c-2.91,0.41-5.53,2.78-8.33,3.2c-7.56,1.14-14.17-4.9-22.42-2.88c-5.06,1.23-7.77,3.94-13.13,2.56c-6.71-1.72-9.28-4.24-16.01-2.56
		c-2.36,0.59-4.21,2.42-7.05,2.88c-5.45,0.9-8.97-1.72-13.77-2.88c-0.16-1.45-1.02-2.18-1.28-3.52c4.01,1.1,7.83,3.54,12.17,3.52
		c4.03-0.02,6.92-2.5,11.21-3.52c6.05-1.45,11.33,3.48,17.93,3.52c5.1,0.03,9.8-3.81,14.73-3.84c4.83-0.03,9.2,3.74,14.41,3.84
		C182.78,143.93,185.59,141.55,190.52,140.32z"/>
	<path fill-rule="evenodd" clip-rule="evenodd" fill="#DC7E27" d="M176.1,159.21c-0.84,1.08-2.32,1.53-3.2,2.56
		c-3.48-1.75-5.72-2.86-9.29-2.88c-5.23-0.04-9.97,3.78-14.73,3.84c-4.72,0.06-9.39-3.81-14.73-3.84c-3.42-0.02-5.99,0.91-9.29,2.88
		c-1.27-0.65-2.11-1.73-3.52-2.24c5.5-1.03,9.03-4.3,15.05-3.52c4.23,0.55,7.72,3.45,11.85,3.52c4.53,0.08,7.87-2.86,12.49-3.52
		C166.83,155.13,170.34,158.65,176.1,159.21z"/>
	<path fill-rule="evenodd" clip-rule="evenodd" fill="#DC7E27" d="M168.42,164.01c-1.07,1.28-3.56,1.14-4.8,2.24
		c-4.88-1.03-8.32,2.77-12.81,3.2c-6.36,0.61-10.24-3.47-16.97-3.2c-1.23-0.91-2.94-1.33-4.48-1.92c4.75-3.57,11.38,1.59,16.65,2.24
		C154.28,167.6,160.47,161.14,168.42,164.01z"/>
	<path fill-rule="evenodd" clip-rule="evenodd" d="M252.64,173.62c-67.04,1.49-136.85,0.22-204.95,0.64
		c-0.27,0.06-0.3-0.12-0.32-0.32c-0.05-0.37,0.07-0.57,0.32-0.64C115.9,173.51,184.96,172.87,252.64,173.62z"/>
	<path fill-rule="evenodd" clip-rule="evenodd" d="M152.09,179.7c-8.53,1.62-7.83,13.79-0.96,15.69
		C163.99,198.96,165.51,177.15,152.09,179.7z M154.97,193.47c-7.46,1.22-10.05-11.12-1.6-11.85
		C160.19,181.03,161.8,192.36,154.97,193.47z"/>
	<path fill-rule="evenodd" clip-rule="evenodd" d="M47.37,179.7c2.56,0.21,5.97-0.42,8.01,0.32c0,0.32,0,0.64,0,0.96
		c0.12,1.3-2,0.35-2.88,0.64c0,4.59,0,9.18,0,13.77c-3.3,0.71-2.24-3.44-2.24-5.76c0-2.8,0-5.71,0-7.69
		c-0.34-0.73-2.01-0.12-2.88-0.32C47.37,180.98,47.37,180.34,47.37,179.7z"/>
	<path fill-rule="evenodd" clip-rule="evenodd" d="M56.98,180.02c0.14-0.72,1.58-0.13,2.24-0.32c0,2.13,0,4.27,0,6.4
		c1.5,0.74,4.37,0.11,6.4,0.32c1.24-1.43-1-6.33,1.28-6.72c1.71,0.8,0.96,5.07,0.96,7.69c0,2.88,0.51,6.38-0.64,8.01
		c-2.65-0.02-0.67-4.67-1.28-6.72c-1.65-0.7-4.55-0.14-6.72-0.32c-0.21,2.24,0.42,5.33-0.32,7.04c-0.32,0-0.64,0-0.96,0
		c-1.31-0.89-0.64-4.17-0.64-6.72c0-2.79,0-5.76,0-8.01C57.35,180.29,57.23,180.09,56.98,180.02z"/>
	<path fill-rule="evenodd" clip-rule="evenodd" d="M70.75,179.7c2.56,0.21,5.97-0.42,8.01,0.32c0,0.32,0,0.64,0,0.96
		c-0.61,1.42-3.79,0.27-5.44,0.64c-0.74,0.97-0.11,3.3-0.32,4.8c1.82,0.21,4.48-0.42,5.76,0.32c0,0.32,0,0.64,0,0.96
		c-0.61,1.42-3.79,0.27-5.44,0.64c-0.74,0.97-0.11,3.3-0.32,4.8c1.23,0.79,5.04,0.01,5.76,0.32c0,0.43,0,0.85,0,1.28
		c-1.32,1.45-5.31,0.24-7.69,0.64C70.33,190.79,70.95,184.84,70.75,179.7z"/>
	<path fill-rule="evenodd" clip-rule="evenodd" d="M95.09,186.43c4.34-3.92-2.03-8.76-7.05-6.4c0.75,4.48,0.11,10.35,0.32,15.37
		C95.91,197.49,100.07,190.19,95.09,186.43z M90.28,181.62c5.37-1.34,5.23,5.75,0.32,4.81C89.94,185.37,90.43,183.18,90.28,181.62z
		 M90.28,193.47v-5.45C96.89,186.41,96.71,195.05,90.28,193.47z"/>
	<path fill-rule="evenodd" clip-rule="evenodd" d="M105.97,179.7h-2.24c-2.1,5.16-4.2,10.32-6.08,15.69
		c3.73,0.74,2.53-3.44,4.16-4.8h6.08c0.75,1.6,0.76,3.93,2.24,4.8h1.6C110.12,189.86,107.58,185.24,105.97,179.7z M102.45,188.67
		c0.46-2.11,1.47-3.66,1.92-5.77c1.59,1.19,1.84,3.71,2.57,5.77H102.45z"/>
	<path fill-rule="evenodd" clip-rule="evenodd" d="M113.02,179.7c3.19-0.62,4.34,3.57,5.76,5.76c1.55,2.39,2.97,4.32,4.16,5.76
		c0-1.81,0-4.12,0-6.4c0-1.77-0.76-4.69,0.96-5.12c1.72,0.88,0.96,5.06,0.96,7.69c0,2.91,0.25,5.93-0.32,8.01
		c-2.98-0.37-3.8-3.74-5.12-5.76c-1.46-2.25-2.88-4.48-4.48-6.4c-0.41,3.86,0.84,9.38-0.64,12.17c-2.28-0.5-1.28-4.37-1.28-6.72
		c0-2.79,0-5.77,0-8.01C113.02,180.34,113.02,180.02,113.02,179.7z"/>
	<path fill-rule="evenodd" clip-rule="evenodd" d="M129.99,179.7c-0.42,5.03,0.84,11.73-0.64,15.69c-2.16,0.05-1.28-4.54-1.28-7.04
		c0-2.83,0-5.85,0-7.69c0-0.32,0-0.64,0-0.96C128.71,179.7,129.35,179.7,129.99,179.7z"/>
	<path fill-rule="evenodd" clip-rule="evenodd" d="M138.64,179.7c-1.77,2.72-3.96,5-5.76,7.69c1.77,2.71,3.69,5.28,5.76,7.69
		c-4.97,1.02-5.33-5.35-8.33-7.37C133.23,185.19,133.44,179.95,138.64,179.7z"/>
	<path fill-rule="evenodd" clip-rule="evenodd" d="M163.94,179.7c2.35,0.21,5.55-0.42,7.37,0.32c0,0.32,0,0.64,0,0.96
		c-0.51,1.41-3.57,0.27-5.12,0.64c-0.74,0.97-0.11,3.3-0.32,4.8c1.71,0.21,4.26-0.42,5.44,0.32c0,0.32,0,0.64,0,0.96
		c-0.51,1.41-3.57,0.27-5.12,0.64c-0.95,1.61,0.31,5.44-0.64,7.04c-0.32,0-0.64,0-0.96,0C163.09,191.43,164.35,184.73,163.94,179.7z
		"/>
	<path fill-rule="evenodd" clip-rule="evenodd" d="M180.91,179.7v8.97c0,2.35-1,6.23,1.28,6.72c1.44-0.91,0.25-4.44,0.64-6.4
		C193.36,190.89,191.75,176.11,180.91,179.7z M187.95,185.78c-0.97,1.17-2.81,1.46-5.12,1.28v-5.45c2.33-0.19,4.22,0.06,5.12,1.28
		V185.78z"/>
	<path fill-rule="evenodd" clip-rule="evenodd" d="M193.4,179.7c2.15,3.65-1.36,12.53,2.56,13.77c6.45,2.03,2.39-9.74,4.48-13.77
		c0.21,0,0.43,0,0.64,0c1.73,0.53,0.96,3.47,0.96,5.44c0,3.52,0.41,7.63-1.28,9.29c-1.8,1.77-6.41,1.78-8.01-0.64
		c-2.11-3.2,0.26-9.22-0.64-14.09C192.54,179.7,192.97,179.7,193.4,179.7z"/>
	<path fill-rule="evenodd" clip-rule="evenodd" d="M204.61,179.7c3.29-0.69,4.66,3.54,6.08,5.76c1.52,2.38,2.84,4.23,3.84,5.76
		c1.16-3-0.73-9.05,0.96-11.53c2.23,0.18,1.28,5.01,1.28,7.37c0,2.94,0,5.97,0,8.33c-3.45,0.06-4.14-3.75-5.44-5.76
		c-1.49-2.3-3.11-4.31-4.48-6.4c-0.45,2.91,0.59,8.8-0.32,12.17c-3.07,0.29-1.92-4.02-1.92-6.4c0-2.99,0-6.12,0-8.33
		C204.61,180.34,204.61,180.02,204.61,179.7z"/>
	<path fill-rule="evenodd" clip-rule="evenodd" d="M224.78,179.7c0.64,0,1.28,0,1.92,0c-1.04,4.48,1.68,11.11-0.64,14.41
		c-1.71,2.44-7.43,2.18-7.69-2.24c2.72-0.69,2.19,1.87,4.16,1.92C226.47,192.28,224.13,184.5,224.78,179.7z"/>
	<path fill-rule="evenodd" clip-rule="evenodd" d="M235.99,179.7h-2.56c-1.57,5.58-4.12,10.19-5.76,15.69h1.92
		c0.99-1.36,1.18-3.52,2.24-4.8h6.08c0.58,1.76,0.82,3.88,2.24,4.8h1.6C240.1,189.9,237.54,185.3,235.99,179.7z M232.46,188.67
		c0.37-2.2,1.46-3.67,1.92-5.77c1.6,1.18,1.74,3.81,2.57,5.77H232.46z"/>
	<path fill-rule="evenodd" clip-rule="evenodd" d="M249.76,186.75c4.12-3.57-0.59-8.78-6.72-7.05v15.69
		C250.28,197.59,255.04,190.26,249.76,186.75z M244.96,181.62c1.72-0.22,2.73,0.25,3.84,0.64c0.27,0.8,0.42,1.71,0.32,2.88
		c-0.81,0.9-2.21,1.21-3.84,1.28C244.62,185.37,245.1,183.18,244.96,181.62z M245.27,193.47c-0.67-1.25-0.16-3.68-0.32-5.45
		c1.87-0.16,3.32,0.1,4.48,0.64C251.29,191.62,248.95,194.12,245.27,193.47z"/>
	<path fill-rule="evenodd" clip-rule="evenodd" d="M252.64,200.2c-67.04,1.49-136.85,0.22-204.95,0.64
		c-0.27,0.06-0.3-0.12-0.32-0.32c-0.05-0.37,0.07-0.57,0.32-0.64C115.9,200.09,184.96,199.45,252.64,200.2z"/>
	<path fill-rule="evenodd" clip-rule="evenodd" fill="#DC7E27" d="M112.7,150.56c0.06-0.36,0.32-0.18,0.32,0
		c9.06,4.09,16.27-4.42,24.98-2.24c3.91,0.98,5.68,3.43,11.53,3.2c5-0.19,10.67-5.09,17.93-3.2c4.52,1.17,5.9,3.44,11.53,3.2
		c1.68-0.07,3.4-0.33,5.44-1.28c-0.67,1.99-2.06,3.99-4.16,4.48c-4.85,1.14-10.29-3.23-15.69-3.52c-7.78-0.42-10.75,5.1-19.21,3.2
		c-2.2-0.49-4.52-2.19-5.76-2.56c-7.45-2.24-11.08,1.25-16.33,2.56C116.96,155.98,115.05,153.79,112.7,150.56z"/>
</g>
</svg>
