<svg width="40" height="40" viewBox="0 0 40 40" fill="none" xmlns="http://www.w3.org/2000/svg">
<rect x="0.5" y="0.5" width="39" height="39" rx="19.5" fill="white"/>
<rect x="0.5" y="0.5" width="39" height="39" rx="19.5" stroke="#F2F2F2"/>
<path d="M25.1875 25.1484C25.5391 25.5391 25.5391 26.125 25.1875 26.4766C24.7969 26.8672 24.2109 26.8672 23.8594 26.4766L19.25 21.8281L14.6016 26.4766C14.2109 26.8672 13.625 26.8672 13.2734 26.4766C12.8828 26.125 12.8828 25.5391 13.2734 25.1484L17.9219 20.5L13.2734 15.8516C12.8828 15.4609 12.8828 14.875 13.2734 14.5234C13.625 14.1328 14.2109 14.1328 14.5625 14.5234L19.25 19.2109L23.8984 14.5625C24.25 14.1719 24.8359 14.1719 25.1875 14.5625C25.5781 14.9141 25.5781 15.5 25.1875 15.8906L20.5391 20.5L25.1875 25.1484Z" fill="black"/>
</svg>
