<svg width="191" height="160" viewBox="0 0 191 160" fill="none" xmlns="http://www.w3.org/2000/svg">
<path d="M175.37 80.08C175.37 119.46 146.6 152.3 108.9 158.83C107.73 159.03 106.55 159.21 105.37 159.36C102.72 159.69 100.02 159.9 97.2999 159.97C96.5899 159.99 95.8699 160 95.1399 160C88.6802 160.005 82.2435 159.229 75.9699 157.69C74.7999 157.4 73.6199 157.09 72.4699 156.75C69.7924 155.968 67.1587 155.043 64.5799 153.98C51.1965 148.416 39.5747 139.323 30.9544 127.671C22.3341 116.019 17.0387 102.246 15.6332 87.8203C14.2277 73.3946 16.7648 58.8581 22.9739 45.7614C29.1829 32.6648 38.8309 21.4995 50.8886 13.4567C62.9463 5.41387 76.9612 0.795341 91.4382 0.0938401C105.915 -0.607661 120.311 2.63418 133.09 9.47349C145.869 16.3128 156.551 26.493 163.997 38.9279C171.443 51.3629 175.374 65.5861 175.37 80.08Z" fill="url(#paint0_linear_1105_5322)"/>
<path opacity="0.2" d="M119.719 45.8701H56.5691C54.0398 45.8757 51.616 46.8843 49.8294 48.6746C48.0428 50.4649 47.0393 52.8908 47.0391 55.4201V88.0801C47.0384 88.2733 47.076 88.4647 47.1498 88.6432C47.2237 88.8217 47.3322 88.9838 47.4691 89.1201C47.6048 89.2578 47.7668 89.3668 47.9454 89.4407C48.1241 89.5146 48.3158 89.5518 48.5091 89.5501H61.6691L61.6891 89.5701H63.1691V122.68C63.1689 122.94 63.238 123.196 63.3691 123.42C63.5022 123.645 63.6918 123.831 63.9191 123.96C64.1449 124.087 64.4001 124.152 64.6591 124.15C64.9198 124.145 65.1748 124.073 65.3991 123.94L72.5291 119.6L79.6591 123.94C79.8888 124.078 80.1514 124.15 80.4191 124.15C80.6867 124.15 80.9494 124.078 81.1791 123.94L88.3091 119.6L95.4391 123.94C95.6688 124.078 95.9314 124.15 96.1991 124.15C96.4667 124.15 96.7294 124.078 96.9591 123.94L104.089 119.6L111.219 123.94C111.449 124.078 111.711 124.15 111.979 124.15C112.247 124.15 112.509 124.078 112.739 123.94L119.869 119.6L126.999 123.94C127.221 124.079 127.478 124.152 127.739 124.15C127.998 124.154 128.254 124.088 128.479 123.96C128.707 123.833 128.896 123.647 129.028 123.422C129.16 123.197 129.229 122.941 129.229 122.68V55.4301C129.23 52.9004 128.227 50.4735 126.44 48.6828C124.654 46.8922 122.229 45.8841 119.699 45.8801L119.719 45.8701Z" fill="#BFD6DC"/>
<path d="M126.719 40.8601H63.5691C61.0398 40.8657 58.616 41.8742 56.8294 43.6646C55.0428 45.4549 54.0393 47.8808 54.0391 50.4101V83.0701C54.0384 83.2633 54.076 83.4547 54.1498 83.6332C54.2237 83.8117 54.3322 83.9738 54.4691 84.1101C54.6048 84.2478 54.7668 84.3568 54.9454 84.4307C55.1241 84.5045 55.3158 84.5418 55.5091 84.5401H68.6691L68.6891 84.5601H70.1691V117.67C70.1689 117.93 70.238 118.186 70.3691 118.41C70.5022 118.635 70.6918 118.821 70.9191 118.95C71.1449 119.077 71.4001 119.142 71.6591 119.14C71.9198 119.135 72.1748 119.063 72.3991 118.93L79.5291 114.59L86.6591 118.93C86.8888 119.068 87.1514 119.14 87.4191 119.14C87.6867 119.14 87.9494 119.068 88.1791 118.93L95.3091 114.59L102.439 118.93C102.669 119.068 102.931 119.14 103.199 119.14C103.467 119.14 103.729 119.068 103.959 118.93L111.089 114.59L118.219 118.93C118.449 119.068 118.711 119.14 118.979 119.14C119.247 119.14 119.509 119.068 119.739 118.93L126.869 114.59L133.999 118.93C134.221 119.069 134.478 119.142 134.739 119.14C134.998 119.144 135.254 119.078 135.479 118.95C135.707 118.823 135.896 118.637 136.028 118.412C136.16 118.187 136.229 117.931 136.229 117.67V50.4201C136.23 47.8903 135.227 45.4635 133.44 43.6728C131.654 41.8822 129.229 40.8741 126.699 40.8701L126.719 40.8601Z" fill="white"/>
<path d="M183.49 126.89C184.837 126.89 186.153 126.491 187.273 125.742C188.393 124.994 189.266 123.93 189.781 122.686C190.297 121.442 190.432 120.072 190.169 118.751C189.906 117.43 189.257 116.217 188.305 115.265C187.353 114.312 186.139 113.664 184.818 113.401C183.497 113.138 182.128 113.273 180.884 113.788C179.639 114.304 178.576 115.177 177.827 116.297C177.079 117.416 176.68 118.733 176.68 120.08C176.68 121.886 177.398 123.618 178.675 124.895C179.952 126.172 181.684 126.89 183.49 126.89Z" fill="#F7FAFA"/>
<path opacity="0.2" d="M171.17 16.4001C172.089 16.4001 172.988 16.1274 173.753 15.6164C174.518 15.1055 175.114 14.3793 175.466 13.5296C175.818 12.6799 175.91 11.7449 175.73 10.8429C175.551 9.94092 175.108 9.11237 174.458 8.46205C173.807 7.81174 172.979 7.36887 172.077 7.18945C171.175 7.01003 170.24 7.10211 169.39 7.45406C168.54 7.80601 167.814 8.40201 167.303 9.1667C166.792 9.93139 166.52 10.8304 166.52 11.7501C166.519 12.3608 166.639 12.9656 166.873 13.5299C167.107 14.0942 167.449 14.6069 167.881 15.0387C168.313 15.4706 168.825 15.8131 169.39 16.0467C169.954 16.2803 170.559 16.4004 171.17 16.4001Z" fill="#B1C7CD"/>
<path opacity="0.2" d="M19.4508 23.3701C20.3705 23.3701 21.2695 23.0974 22.0342 22.5864C22.7989 22.0755 23.3949 21.3492 23.7468 20.4995C24.0988 19.6499 24.1909 18.7149 24.0114 17.8129C23.832 16.9109 23.3891 16.0823 22.7388 15.432C22.0885 14.7817 21.26 14.3388 20.358 14.1594C19.4559 13.98 18.521 14.0721 17.6713 14.424C16.8216 14.776 16.0954 15.372 15.5844 16.1367C15.0735 16.9014 14.8008 17.8004 14.8008 18.7201C14.8005 19.3308 14.9206 19.9356 15.1542 20.4999C15.3878 21.0641 15.7303 21.5769 16.1621 22.0087C16.594 22.4405 17.1067 22.7831 17.671 23.0166C18.2353 23.2502 18.8401 23.3703 19.4508 23.3701Z" fill="#B1C7CD"/>
<path d="M8.63 148.15C10.3369 148.15 12.0054 147.644 13.4246 146.695C14.8438 145.747 15.9499 144.399 16.6031 142.822C17.2563 141.246 17.4272 139.51 17.0942 137.836C16.7612 136.162 15.9393 134.624 14.7323 133.418C13.5254 132.211 11.9877 131.389 10.3136 131.056C8.63958 130.723 6.90437 130.894 5.32744 131.547C3.75052 132.2 2.4027 133.306 1.45442 134.725C0.506142 136.145 1.45025e-06 137.813 1.45025e-06 139.52C-0.000655838 140.653 0.222117 141.776 0.655582 142.823C1.08905 143.871 1.7247 144.822 2.5262 145.624C3.3277 146.425 4.27933 147.061 5.32667 147.494C6.374 147.928 7.49651 148.151 8.63 148.15Z" fill="#4AD493"/>
<path d="M183.49 67.5299C182.636 67.5299 181.8 67.2765 181.09 66.8018C180.379 66.3272 179.826 65.6525 179.499 64.8631C179.172 64.0737 179.086 63.2051 179.253 62.3671C179.42 61.5291 179.831 60.7594 180.435 60.1552C181.039 59.551 181.809 59.1396 182.647 58.9729C183.485 58.8062 184.354 58.8918 185.143 59.2187C185.932 59.5457 186.607 60.0994 187.082 60.8098C187.557 61.5203 187.81 62.3555 187.81 63.2099C187.808 64.355 187.352 65.4526 186.542 66.2623C185.733 67.072 184.635 67.5278 183.49 67.5299ZM183.49 60.3399C182.922 60.3399 182.367 60.5082 181.895 60.8236C181.423 61.1389 181.056 61.5872 180.838 62.1116C180.621 62.636 180.564 63.2131 180.675 63.7698C180.786 64.3265 181.059 64.8379 181.461 65.2393C181.862 65.6407 182.373 65.914 182.93 66.0248C183.487 66.1355 184.064 66.0787 184.588 65.8614C185.113 65.6442 185.561 65.2764 185.876 64.8044C186.192 64.3324 186.36 63.7775 186.36 63.2099C186.358 62.4492 186.055 61.7201 185.518 61.1822C184.98 60.6444 184.251 60.3415 183.49 60.3399Z" fill="#BFD6DC"/>
<path d="M36.3205 152.89C35.4286 152.89 34.5566 152.626 33.8149 152.13C33.0733 151.634 32.4952 150.93 32.1539 150.106C31.8125 149.282 31.7232 148.375 31.8972 147.5C32.0712 146.625 32.5008 145.822 33.1315 145.191C33.7622 144.56 34.5658 144.131 35.4407 143.957C36.3155 143.783 37.2224 143.872 38.0465 144.213C38.8705 144.555 39.5749 145.133 40.0705 145.874C40.566 146.616 40.8306 147.488 40.8306 148.38C40.8303 149.576 40.355 150.723 39.5093 151.569C38.6636 152.415 37.5166 152.89 36.3205 152.89ZM36.3205 145.38C35.7272 145.38 35.1472 145.556 34.6538 145.886C34.1605 146.215 33.776 146.684 33.5489 147.232C33.3218 147.78 33.2624 148.383 33.3782 148.965C33.4939 149.547 33.7797 150.082 34.1992 150.501C34.6188 150.921 35.1533 151.207 35.7353 151.322C36.3172 151.438 36.9204 151.379 37.4686 151.152C38.0168 150.925 38.4853 150.54 38.815 150.047C39.1446 149.553 39.3205 148.973 39.3205 148.38C39.3205 147.584 39.0045 146.821 38.4419 146.259C37.8793 145.696 37.1162 145.38 36.3205 145.38Z" fill="#BFD6DC"/>
<path d="M79.1895 8.66992L82.5395 17.7399L91.6095 21.0899L82.5395 24.4399L79.1895 33.5099L75.8395 24.4399L66.7695 21.0899L75.8395 17.7399L79.1895 8.66992Z" fill="#4AD493"/>
<path d="M157.36 83.52L159.21 88.53L164.22 90.38L159.21 92.23L157.36 97.24L155.51 92.23L150.5 90.38L155.51 88.53L157.36 83.52Z" fill="#E1ECEE"/>
<path d="M63.5691 40.8801C64.4358 40.8814 65.2938 41.0534 66.094 41.3863C66.8943 41.7192 67.6211 42.2065 68.233 42.8203C68.845 43.4341 69.33 44.1624 69.6605 44.9636C69.991 45.7649 70.1604 46.6234 70.1591 47.4901V84.5601M136.249 50.4101C136.25 47.8803 135.247 45.4535 133.46 43.6628C131.674 41.8722 129.249 40.8641 126.719 40.8601H63.5691C61.0398 40.8657 58.616 41.8742 56.8294 43.6646C55.0428 45.4549 54.0393 47.8808 54.0391 50.4101V83.0701C54.0384 83.2633 54.076 83.4547 54.1498 83.6332C54.2237 83.8117 54.3322 83.9738 54.4691 84.1101C54.6048 84.2478 54.7668 84.3568 54.9454 84.4307C55.1241 84.5045 55.3158 84.5418 55.5091 84.5401H70.1691V117.66C70.1689 117.92 70.238 118.176 70.3691 118.4C70.5022 118.625 70.6918 118.811 70.9191 118.94C71.1449 119.067 71.4001 119.132 71.6591 119.13C71.9198 119.125 72.1748 119.053 72.3991 118.92L79.5291 114.58L86.6591 118.92C86.8888 119.058 87.1514 119.13 87.4191 119.13C87.6867 119.13 87.9494 119.058 88.1791 118.92L95.3091 114.58L102.439 118.92C102.669 119.058 102.931 119.13 103.199 119.13C103.467 119.13 103.729 119.058 103.959 118.92L111.089 114.58L118.219 118.92C118.449 119.058 118.711 119.13 118.979 119.13C119.247 119.13 119.509 119.058 119.739 118.92L126.869 114.58L133.999 118.92C134.221 119.059 134.478 119.132 134.739 119.13C134.998 119.134 135.254 119.068 135.479 118.94C135.707 118.813 135.896 118.627 136.028 118.402C136.16 118.177 136.229 117.921 136.229 117.66V50.4101H136.249Z" stroke="#D4E3E7" stroke-width="2.78" stroke-miterlimit="10"/>
<path d="M82.6398 63.7599H94.1398C94.6835 63.7599 95.205 63.5439 95.5894 63.1595C95.9739 62.775 96.1898 62.2536 96.1898 61.7099C96.1898 61.1662 95.9739 60.6448 95.5894 60.2603C95.205 59.8759 94.6835 59.6599 94.1398 59.6599H82.6398C82.0962 59.6599 81.5747 59.8759 81.1903 60.2603C80.8058 60.6448 80.5898 61.1662 80.5898 61.7099C80.5898 62.2536 80.8058 62.775 81.1903 63.1595C81.5747 63.5439 82.0962 63.7599 82.6398 63.7599Z" fill="#BFD6DC"/>
<path d="M124.25 59.6499H106.12C105.577 59.6499 105.055 59.8659 104.671 60.2503C104.286 60.6348 104.07 61.1562 104.07 61.6999C104.07 62.2436 104.286 62.765 104.671 63.1495C105.055 63.5339 105.577 63.7499 106.12 63.7499H124.25C124.794 63.7499 125.315 63.5339 125.7 63.1495C126.084 62.765 126.3 62.2436 126.3 61.6999C126.3 61.1562 126.084 60.6348 125.7 60.2503C125.315 59.8659 124.794 59.6499 124.25 59.6499Z" fill="#E1ECEE"/>
<path d="M82.6398 75.1901H103.59C104.134 75.1901 104.655 74.9741 105.039 74.5897C105.424 74.2052 105.64 73.6838 105.64 73.1401C105.64 72.5964 105.424 72.075 105.039 71.6905C104.655 71.3061 104.134 71.0901 103.59 71.0901H82.6398C82.0962 71.0901 81.5747 71.3061 81.1903 71.6905C80.8058 72.075 80.5898 72.5964 80.5898 73.1401C80.5898 73.6838 80.8058 74.2052 81.1903 74.5897C81.5747 74.9741 82.0962 75.1901 82.6398 75.1901Z" fill="#E1ECEE"/>
<path d="M94.9598 93.98H82.6398C82.0962 93.98 81.5747 94.196 81.1903 94.5804C80.8058 94.9649 80.5898 95.4863 80.5898 96.03C80.5898 96.5737 80.8058 97.0951 81.1903 97.4795C81.5747 97.864 82.0962 98.08 82.6398 98.08H94.9598C95.5035 98.08 96.025 97.864 96.4094 97.4795C96.7939 97.0951 97.0098 96.5737 97.0098 96.03C97.0098 95.4863 96.7939 94.9649 96.4094 94.5804C96.025 94.196 95.5035 93.98 94.9598 93.98Z" fill="#E1ECEE"/>
<path d="M119.2 82.53H82.6398C82.0961 82.53 81.5747 82.746 81.1903 83.1305C80.8058 83.5149 80.5898 84.0363 80.5898 84.58C80.5898 85.1237 80.8058 85.6452 81.1903 86.0296C81.5747 86.4141 82.0961 86.63 82.6398 86.63H119.2C119.744 86.63 120.265 86.4141 120.649 86.0296C121.034 85.6452 121.25 85.1237 121.25 84.58C121.25 84.0363 121.034 83.5149 120.649 83.1305C120.265 82.746 119.744 82.53 119.2 82.53Z" fill="#BFD6DC"/>
<path d="M152.88 158.35C166.721 158.35 177.94 147.13 177.94 133.29C177.94 119.45 166.721 108.23 152.88 108.23C139.04 108.23 127.82 119.45 127.82 133.29C127.82 147.13 139.04 158.35 152.88 158.35Z" fill="white"/>
<path d="M152.881 152.62C163.556 152.62 172.211 143.966 172.211 133.29C172.211 122.614 163.556 113.96 152.881 113.96C142.205 113.96 133.551 122.614 133.551 133.29C133.551 143.966 142.205 152.62 152.881 152.62Z" fill="#FF2C3C"/>
<path d="M156.65 128.15L152.69 132.08L148.76 128.12C148.573 127.935 148.323 127.828 148.06 127.82C147.794 127.819 147.539 127.924 147.35 128.11C147.165 128.297 147.057 128.547 147.05 128.81C147.049 129.076 147.153 129.331 147.34 129.52L151.27 133.48L147.31 137.41C147.125 137.597 147.017 137.847 147.01 138.11C147.009 138.376 147.113 138.631 147.3 138.82C147.487 139.005 147.737 139.112 148 139.12C148.265 139.121 148.521 139.017 148.71 138.83L152.67 134.9L156.6 138.86C156.787 139.045 157.037 139.152 157.3 139.16C157.565 139.161 157.821 139.057 158.01 138.87C158.195 138.683 158.302 138.433 158.31 138.17C158.311 137.904 158.206 137.649 158.02 137.46L154.09 133.5L158.05 129.57C158.235 129.383 158.342 129.133 158.35 128.87C158.351 128.604 158.246 128.349 158.06 128.16C157.873 127.975 157.623 127.868 157.36 127.86C157.094 127.859 156.839 127.964 156.65 128.15Z" fill="white" stroke="white" stroke-width="0.8"/>
<defs>
<linearGradient id="paint0_linear_1105_5322" x1="95.3129" y1="162.4" x2="95.3129" y2="3.36" gradientUnits="userSpaceOnUse">
<stop stop-color="#F5F8F9"/>
<stop offset="1" stop-color="white"/>
</linearGradient>
</defs>
</svg>
