<svg width="68" height="68" viewBox="0 0 68 68" fill="none" xmlns="http://www.w3.org/2000/svg">
<circle cx="34" cy="34" r="34" fill="url(#paint0_linear_1166_4793)"/>
<g clip-path="url(#clip0_1166_4793)">
<path d="M41.7277 43.4824C40.132 44.5371 40.1483 44.5972 38.9625 45.1273C37.558 45.7557 36.0989 45.9688 34.6344 45.9361C33.1698 45.9087 31.7435 45.5644 30.35 44.9251C28.9456 44.2748 27.6613 43.3458 26.481 42.1271C25.3115 40.9358 24.4262 39.6461 23.8251 38.2635C23.213 36.8809 22.907 35.4765 22.9015 34.0502C22.8906 32.6239 23.1857 31.2194 23.7814 29.8478C24.377 28.4816 25.2787 27.2028 26.4973 26.017C28.0439 24.5087 29.6997 23.5305 31.4539 23.0769C32.7818 22.7326 34.1863 22.6179 35.6672 22.7108C36.4596 22.7709 37.1591 22.219 37.2466 21.4266L37.6564 17.7105C37.7438 16.9181 37.1646 16.1913 36.3722 16.1039C33.9841 15.8416 31.6561 16.0383 29.3882 16.6886C26.6777 17.4865 24.1858 18.9783 21.9343 21.1806C20.0325 23.0332 18.5898 25.0934 17.5898 27.3449C16.6007 29.6073 16.076 31.9025 16.005 34.2414C15.9394 36.5804 16.3383 38.881 17.1908 41.1325C18.0488 43.3895 19.3877 45.4333 21.1911 47.2859C22.9944 49.1384 25.0055 50.5265 27.2351 51.4391C29.4702 52.3572 31.7545 52.8107 34.0879 52.8053C36.4323 52.7998 38.733 52.3298 41.0172 51.4008C41.6785 51.1276 42.3288 50.8161 42.9572 50.4663C43.2687 50.2915 43.4545 49.9581 43.4545 49.6084V42.6244C43.4545 42.3676 43.1485 42.2309 42.9572 42.4003L41.7222 43.4933L41.7277 43.4824Z" fill="white"/>
<path d="M52.2415 33.7768V39.3345C51.2251 42.6298 49.3015 45.5261 46.7494 47.7175C46.3013 48.1055 45.6018 47.7721 45.6018 47.1819V38.5312H36.1915C35.3827 38.5312 34.7324 37.8754 34.7324 37.0721V33.7768C34.7324 32.9735 35.3827 32.3177 36.1915 32.3177H50.777C51.5803 32.3177 52.2361 32.9681 52.2361 33.7768H52.2415Z" fill="white"/>
</g>
<defs>
<linearGradient id="paint0_linear_1166_4793" x1="34" y1="0" x2="34" y2="68" gradientUnits="userSpaceOnUse">
<stop stop-color="#4AD594"/>
<stop offset="1"/>
</linearGradient>
<clipPath id="clip0_1166_4793">
<rect width="36.2424" height="36.7998" fill="white" transform="translate(16 16)"/>
</clipPath>
</defs>
</svg>
