<svg width="375" height="792" viewBox="0 0 375 792" fill="none" xmlns="http://www.w3.org/2000/svg">
<rect width="375" height="791.47" fill="black"/>
<path d="M361 357C361 453.098 283.321 531 187.5 531C91.6786 531 14 453.098 14 357C14 260.902 91.6786 183 187.5 183C283.321 183 361 260.902 361 357Z" fill="#4AD594" fill-opacity="0.1"/>
<path d="M330 357C330 435.977 266.201 500 187.5 500C108.799 500 45 435.977 45 357C45 278.023 108.799 214 187.5 214C266.201 214 330 278.023 330 357Z" fill="#4AD594" fill-opacity="0.05"/>
<path d="M148.5 278.508V226.285H92M202.5 278.285V187.785H128.5V51.2852H202.5M252 298.285V161.785M128.5 420.785V481.785H73V534.785M181.5 441.785V621.285H128.5V673.785M252 414.785V490.285H319V590.785H265" stroke="#4AD594" stroke-opacity="0.7" stroke-linecap="round" stroke-dasharray="2 5"/>
<circle cx="187.5" cy="356.785" r="87.5" fill="#4AD594" fill-opacity="0.1"/>
<g clip-path="url(#clip0_122_5565)">
<path d="M201.08 373.29C198.16 375.22 198.19 375.33 196.02 376.3C193.45 377.45 190.78 377.84 188.1 377.78C185.42 377.73 182.81 377.1 180.26 375.93C177.69 374.74 175.34 373.04 173.18 370.81C171.04 368.63 169.42 366.27 168.32 363.74C167.2 361.21 166.64 358.64 166.63 356.03C166.61 353.42 167.15 350.85 168.24 348.34C169.33 345.84 170.98 343.5 173.21 341.33C176.04 338.57 179.07 336.78 182.28 335.95C184.71 335.32 187.28 335.11 189.99 335.28C191.44 335.39 192.72 334.38 192.88 332.93L193.63 326.13C193.79 324.68 192.73 323.35 191.28 323.19C186.91 322.71 182.65 323.07 178.5 324.26C173.54 325.72 168.98 328.45 164.86 332.48C161.38 335.87 158.74 339.64 156.91 343.76C155.1 347.9 154.14 352.1 154.01 356.38C153.89 360.66 154.62 364.87 156.18 368.99C157.75 373.12 160.2 376.86 163.5 380.25C166.8 383.64 170.48 386.18 174.56 387.85C178.65 389.53 182.83 390.36 187.1 390.35C191.39 390.34 195.6 389.48 199.78 387.78C200.99 387.28 202.18 386.71 203.33 386.07C203.9 385.75 204.24 385.14 204.24 384.5V371.72C204.24 371.25 203.68 371 203.33 371.31L201.07 373.31L201.08 373.29Z" fill="white"/>
<path d="M220.32 355.53V365.7C218.46 371.73 214.94 377.03 210.27 381.04C209.45 381.75 208.17 381.14 208.17 380.06V364.23H190.95C189.47 364.23 188.28 363.03 188.28 361.56V355.53C188.28 354.06 189.47 352.86 190.95 352.86H217.64C219.11 352.86 220.31 354.05 220.31 355.53H220.32Z" fill="#4AD594"/>
</g>
<path fill-rule="evenodd" clip-rule="evenodd" d="M215.475 41.2888L215.447 41.2869C214.13 41.2256 212.272 42.809 211.585 43.9542C210.832 44.9833 210.817 46.3499 211.475 47.9307L211.579 48.1694C213.313 52.4389 219.818 58.9361 224.071 60.7149C225.698 61.4761 227.148 61.4901 228.291 60.6672C229.296 60.0929 230.943 58.182 230.895 56.8248C230.85 56.2664 230.591 55.8106 230.188 55.3956L230.089 55.2978L229.815 55.0446C228.823 54.1577 227.106 52.895 226.575 52.7834C225.951 52.6533 225.529 52.7697 224.862 53.1375L224.613 53.2788C224.139 53.5523 223.969 53.599 223.745 53.5171C221.372 52.5429 219.698 50.8613 218.718 48.4491C218.654 48.2704 218.686 48.1143 218.892 47.7359L219.001 47.5429C219.45 46.7577 219.601 46.3139 219.459 45.6304L219.434 45.5418C219.202 44.8656 217.778 42.9577 216.988 42.1271L216.861 41.9983C216.449 41.5937 215.996 41.3336 215.475 41.2888ZM215.365 42.7491L215.419 42.7595C215.514 42.7863 215.626 42.852 215.752 42.9603L215.844 43.0443L216.017 43.2267C216.689 43.9687 217.991 45.7186 218.034 45.9278C218.075 46.1242 218.03 46.2884 217.817 46.6753L217.705 46.8725C217.235 47.6948 217.09 48.225 217.36 48.9748C218.499 51.7787 220.46 53.7492 223.221 54.8822C223.934 55.1427 224.439 55.0386 225.154 54.6509L225.399 54.5125C225.884 54.2318 226.062 54.1708 226.278 54.2159C226.49 54.2604 228.381 55.6801 229.075 56.3473L229.156 56.4277C229.335 56.6119 229.432 56.7836 229.443 56.911C229.453 57.2088 229.154 57.7681 228.628 58.3786C228.253 58.8133 227.767 59.2576 227.556 59.405L227.505 59.4376C226.824 59.924 225.982 59.945 224.869 59.4707L224.657 59.3759C220.812 57.767 214.765 51.7731 213.019 47.8332L212.915 47.5897C212.374 46.3927 212.329 45.5177 212.718 44.881L212.796 44.7643C213.246 44.0186 214.603 42.8441 215.279 42.7537L215.365 42.7491ZM223.422 41.5289L223.521 41.5332C227.45 41.9718 230.554 45.0882 230.995 49.0386C231.04 49.4401 230.753 49.8022 230.353 49.8474C229.954 49.8925 229.594 49.6036 229.549 49.202C229.183 45.931 226.614 43.3507 223.36 42.9876C222.961 42.943 222.673 42.5813 222.717 42.1797C222.754 41.845 223.01 41.5882 223.325 41.5377L223.422 41.5289ZM223.481 44.9861L223.579 44.9986C225.588 45.3921 227.157 46.97 227.549 48.9891C227.626 49.3857 227.368 49.7699 226.974 49.8472C226.579 49.9245 226.197 49.6657 226.12 49.2691C225.842 47.8348 224.728 46.7144 223.301 46.4348C222.907 46.3575 222.649 45.9733 222.726 45.5767C222.79 45.2462 223.066 45.0114 223.385 44.987L223.481 44.9861Z" fill="#4AD594"/>
<circle cx="220.5" cy="50.7852" r="18.5" stroke="#4AD594" stroke-linecap="round" stroke-dasharray="2 5"/>
<circle cx="251.5" cy="142.785" r="18.5" stroke="#4AD594" stroke-linecap="round" stroke-dasharray="2 5"/>
<path fill-rule="evenodd" clip-rule="evenodd" d="M242.878 133.796L242.777 133.786C242.407 133.772 242.076 134.033 242.011 134.407L242 134.509C241.987 134.878 242.248 135.21 242.622 135.274L244.131 135.535L245.046 146.431L245.065 146.595C245.249 147.837 246.317 148.771 247.59 148.771H258.502L258.666 148.766C259.863 148.69 260.855 147.785 261.029 146.583L261.978 140.025L261.995 139.874C262.082 138.675 261.132 137.634 259.909 137.634H245.812L245.577 134.833L245.56 134.722C245.491 134.433 245.257 134.208 244.958 134.156L242.878 133.796ZM247.474 147.265C246.979 147.211 246.583 146.813 246.541 146.306L245.938 139.134H259.909L259.997 139.141C260.313 139.188 260.541 139.483 260.494 139.81L259.545 146.368L259.521 146.485C259.401 146.944 258.985 147.271 258.502 147.271H247.59L247.474 147.265ZM245.909 151.871C245.909 151.034 246.586 150.356 247.423 150.356C248.259 150.356 248.938 151.034 248.938 151.871C248.938 152.707 248.259 153.385 247.423 153.385C246.586 153.385 245.909 152.707 245.909 151.871ZM257.16 151.871C257.16 151.034 257.839 150.356 258.675 150.356C259.511 150.356 260.19 151.034 260.19 151.871C260.19 152.707 259.511 153.385 258.675 153.385C257.839 153.385 257.16 152.707 257.16 151.871ZM257.649 142.08C257.649 141.666 257.313 141.33 256.899 141.33H254.126L254.024 141.337C253.658 141.387 253.376 141.701 253.376 142.08C253.376 142.494 253.711 142.83 254.126 142.83H256.899L257 142.823C257.366 142.774 257.649 142.46 257.649 142.08Z" fill="#4AD594"/>
<circle cx="72.5" cy="225.785" r="18.5" stroke="#4AD594" stroke-linecap="round" stroke-dasharray="2 5"/>
<path fill-rule="evenodd" clip-rule="evenodd" d="M81.3395 221.944C82.0095 222.463 82.4205 223.234 82.4905 224.073L82.5005 224.274V232.383C82.5005 234.473 80.8495 236.173 78.7805 236.283H76.7905C75.8395 236.264 75.0705 235.524 75.0005 234.594L74.9905 234.453V231.594C74.9905 231.283 74.7595 231.024 74.4505 230.973L74.3605 230.963H71.6895C71.3705 230.973 71.1105 231.203 71.0705 231.503L71.0605 231.594V234.444C71.0605 234.503 71.0495 234.573 71.0405 234.623L71.0305 234.644L71.0195 234.713C70.9005 235.564 70.2005 236.213 69.3305 236.274L69.2005 236.283H67.4105C65.3205 236.283 63.6105 234.644 63.5005 232.583V224.274C63.5095 223.423 63.8805 222.633 64.5005 222.083L70.7305 217.073C72.0005 216.064 73.7805 216.024 75.0895 216.953L75.2505 217.073L81.3395 221.944ZM81.0995 232.543L81.1105 232.383V224.283C81.0995 223.854 80.9205 223.453 80.6105 223.154L80.4805 223.043L74.3805 218.163C73.6205 217.553 72.5405 217.524 71.7405 218.053L71.5895 218.163L65.5095 223.064C65.1605 223.323 64.9505 223.713 64.9005 224.123L64.8895 224.283V232.383C64.8895 233.713 65.9295 234.803 67.2505 234.883H69.2005C69.4205 234.883 69.6105 234.734 69.6395 234.524L69.6605 234.344L69.6705 234.293V231.594C69.6705 230.524 70.4905 229.654 71.5405 229.573H74.3605C75.4295 229.573 76.2995 230.394 76.3805 231.444V234.453C76.3805 234.663 76.5305 234.844 76.7305 234.883H78.5895C79.9295 234.883 81.0195 233.854 81.0995 232.543Z" fill="#4AD594"/>
<circle cx="73.5" cy="553.785" r="18.5" stroke="#4AD594" stroke-linecap="round" stroke-dasharray="2 5"/>
<path d="M70.0193 550.461C70.1543 550.461 70.2838 550.407 70.3792 550.311C70.4747 550.216 70.5283 550.087 70.5283 549.952V547.668H76.7357V549.952C76.7357 550.087 76.7893 550.216 76.8848 550.311C76.9802 550.407 77.1097 550.461 77.2447 550.461C77.3797 550.461 77.5092 550.407 77.6046 550.311C77.7001 550.216 77.7537 550.087 77.7537 549.952V547.264C77.755 547.103 77.6923 546.948 77.5794 546.833C77.4665 546.718 77.3126 546.652 77.1514 546.65H70.1126C69.9514 546.652 69.7975 546.718 69.6846 546.833C69.5717 546.948 69.509 547.103 69.5103 547.264V549.952C69.5103 550.087 69.5639 550.216 69.6594 550.311C69.7548 550.407 69.8843 550.461 70.0193 550.461Z" fill="#4AD594"/>
<path d="M76.7454 555.222C76.1772 555.054 75.5706 555.07 75.0118 555.266C74.4529 555.463 73.9701 555.83 73.632 556.317C73.2939 555.83 72.8111 555.463 72.2522 555.266C71.6933 555.07 71.0867 555.054 70.5185 555.222C70.4054 555.255 70.3074 555.327 70.2412 555.424C70.175 555.522 70.1447 555.639 70.1554 555.756C70.2127 556.391 70.4433 556.998 70.8221 557.511C71.2008 558.024 71.7133 558.422 72.3033 558.664C72.4281 558.715 72.5683 558.715 72.6929 558.663C72.8175 558.611 72.9164 558.512 72.9677 558.387C73.0191 558.262 73.0188 558.122 72.9668 557.997C72.9149 557.873 72.8156 557.774 72.6907 557.722C72.3466 557.582 72.0388 557.365 71.7903 557.088C71.5419 556.812 71.3592 556.483 71.256 556.126C71.2764 556.125 71.2968 556.124 71.3173 556.125C71.7958 556.125 72.2545 556.315 72.5928 556.654C72.9311 556.992 73.1213 557.451 73.1218 557.93C73.1218 557.937 73.1226 557.945 73.1229 557.953V560.088C73.1229 560.223 73.1766 560.353 73.272 560.448C73.3675 560.543 73.4969 560.597 73.6319 560.597C73.7669 560.597 73.8964 560.543 73.9919 560.448C74.0873 560.353 74.1409 560.223 74.1409 560.088V557.953C74.1413 557.945 74.1421 557.937 74.1421 557.929C74.1427 557.451 74.333 556.992 74.6712 556.654C75.0095 556.315 75.4682 556.125 75.9466 556.124C75.967 556.124 75.9874 556.125 76.0078 556.125C75.9046 556.483 75.722 556.812 75.4735 557.088C75.225 557.365 74.9172 557.582 74.5731 557.722C74.5113 557.748 74.4551 557.785 74.4077 557.832C74.3603 557.879 74.3227 557.935 74.297 557.997C74.2713 558.059 74.258 558.125 74.2578 558.192C74.2576 558.259 74.2707 558.325 74.2961 558.387C74.3215 558.449 74.3589 558.505 74.4061 558.552C74.4532 558.599 74.5092 558.637 74.5709 558.663C74.6326 558.689 74.6988 558.702 74.7656 558.702C74.8325 558.702 74.8987 558.689 74.9605 558.664C75.5506 558.422 76.063 558.024 76.4418 557.511C76.8206 556.998 77.0512 556.391 77.1084 555.756C77.1191 555.639 77.0888 555.522 77.0226 555.424C76.9564 555.327 76.8584 555.255 76.7454 555.222Z" fill="#4AD594"/>
<path d="M83.3416 562.319H79.8651V546.708C79.8644 546.065 79.609 545.45 79.1548 544.995C78.7007 544.541 78.085 544.286 77.4427 544.285H69.8214C69.1791 544.286 68.5634 544.541 68.1093 544.995C67.6551 545.45 67.3997 546.065 67.399 546.708V562.319H64.509C64.374 562.319 64.2445 562.373 64.1491 562.468C64.0536 562.563 64 562.693 64 562.828C64 562.963 64.0536 563.092 64.1491 563.188C64.2445 563.283 64.374 563.337 64.509 563.337H83.3416C83.4766 563.337 83.6061 563.283 83.7015 563.188C83.797 563.092 83.8506 562.963 83.8506 562.828C83.8506 562.693 83.797 562.563 83.7015 562.468C83.6061 562.373 83.4766 562.319 83.3416 562.319ZM69.8214 545.303H77.4427C77.8151 545.304 78.172 545.452 78.4353 545.715C78.6986 545.978 78.8467 546.335 78.8471 546.708V551.42H68.417V546.708C68.4174 546.335 68.5655 545.978 68.8288 545.715C69.0921 545.452 69.449 545.304 69.8214 545.303ZM68.417 562.319V552.438H78.8471V562.319H68.417Z" fill="#4AD594"/>
<path d="M83.8511 549.172L81.4786 546.799C81.4313 546.752 81.3752 546.715 81.3134 546.689C81.2517 546.664 81.1855 546.65 81.1186 546.65C81.0518 546.65 80.9856 546.664 80.9238 546.689C80.8621 546.715 80.806 546.752 80.7587 546.799C80.7114 546.847 80.6739 546.903 80.6484 546.965C80.6228 547.026 80.6096 547.093 80.6096 547.159C80.6096 547.226 80.6228 547.292 80.6484 547.354C80.6739 547.416 80.7114 547.472 80.7587 547.519L82.9821 549.743V552.03H82.0343V549.359C82.0343 549.224 81.9807 549.094 81.8852 548.999C81.7898 548.903 81.6603 548.85 81.5253 548.85C81.3903 548.85 81.2608 548.903 81.1654 548.999C81.0699 549.094 81.0163 549.224 81.0163 549.359V552.539C81.0163 552.674 81.0699 552.803 81.1654 552.899C81.2608 552.994 81.3903 553.048 81.5253 553.048H82.0504V559.616C82.0502 559.77 81.9892 559.917 81.8807 560.025C81.7722 560.134 81.6251 560.195 81.4717 560.195H80.7033C80.5684 560.195 80.4389 560.249 80.3434 560.344C80.248 560.439 80.1943 560.569 80.1943 560.704C80.1943 560.839 80.248 560.968 80.3434 561.064C80.4389 561.159 80.5684 561.213 80.7033 561.213H81.4717C81.895 561.212 82.3009 561.044 82.6002 560.745C82.8996 560.445 83.0679 560.039 83.0684 559.616V553.048H83.4911C83.6261 553.048 83.7556 552.994 83.8511 552.899C83.9465 552.803 84.0002 552.674 84.0002 552.539V549.532C84.0001 549.397 83.9465 549.267 83.8511 549.172Z" fill="#4AD594"/>
<circle cx="128.5" cy="692.785" r="18.5" stroke="#4AD594" stroke-linecap="round" stroke-dasharray="2 5"/>
<path fill-rule="evenodd" clip-rule="evenodd" d="M129.029 683.285C124.42 683.27 120.655 686.937 120.505 691.527L120.5 691.811C120.577 694.061 121.342 696.206 122.69 697.973L123.007 698.386C124.294 700.022 125.823 701.458 127.54 702.642L127.954 702.921L128.014 702.968C128.603 703.391 129.397 703.391 129.986 702.968L130.036 702.927C131.399 702.043 132.655 701.005 133.78 699.832C136.069 697.41 137.448 694.696 137.5 691.94L137.5 691.838C137.516 687.217 133.86 683.441 129.284 683.29L129.029 683.285ZM129.024 684.803C132.802 684.816 135.87 687.835 135.984 691.594L135.987 691.926C135.943 694.237 134.733 696.618 132.687 698.784C131.643 699.871 130.473 700.838 129.204 701.66L129.119 701.723C129.051 701.783 128.949 701.783 128.881 701.723L128.799 701.661C126.908 700.427 125.249 698.868 123.896 697.057C122.807 695.629 122.162 693.923 122.032 692.142L122.013 691.785C122.026 687.997 125.035 684.92 128.783 684.806L129.024 684.803ZM129 688.686C127.212 688.686 125.762 690.141 125.762 691.935C125.762 693.729 127.212 695.183 129 695.183C130.788 695.183 132.238 693.729 132.238 691.935C132.238 690.141 130.788 688.686 129 688.686ZM129 690.204C129.953 690.204 130.725 690.979 130.725 691.935C130.725 692.89 129.953 693.665 129 693.665C128.047 693.665 127.275 692.89 127.275 691.935C127.275 690.979 128.047 690.204 129 690.204Z" fill="#4AD594"/>
<circle cx="245.5" cy="590.785" r="18.5" stroke="#4AD594" stroke-linecap="round" stroke-dasharray="2 5"/>
<path fill-rule="evenodd" clip-rule="evenodd" d="M250.419 581.888C250.373 581.548 250.083 581.285 249.733 581.285C249.35 581.285 249.04 581.598 249.04 581.983V582.754H242.968V581.983L242.962 581.888C242.916 581.548 242.626 581.285 242.276 581.285C241.893 581.285 241.584 581.598 241.584 581.983V582.771C238.747 582.967 237 584.805 237 587.771V596.189C237 599.372 238.958 601.285 242.096 601.285H249.904C253.045 601.285 255 599.404 255 596.26V587.771C255.009 584.804 253.268 582.966 250.425 582.771V581.983L250.419 581.888ZM249.04 584.15V585.044L249.047 585.139C249.092 585.479 249.382 585.742 249.733 585.742C250.115 585.742 250.425 585.429 250.425 585.044V584.17C252.493 584.342 253.622 585.588 253.615 587.769V588.173H238.385V587.771C238.385 585.591 239.519 584.343 241.584 584.17V585.044L241.59 585.139C241.636 585.479 241.925 585.742 242.276 585.742C242.658 585.742 242.968 585.429 242.968 585.044V584.15H249.04ZM238.385 589.568V596.189C238.385 598.592 239.714 599.89 242.096 599.89H249.904C252.295 599.89 253.615 598.619 253.615 596.26L253.615 589.568H238.385ZM250.801 592.503C250.801 592.118 250.491 591.806 250.109 591.806L250.006 591.812C249.668 591.858 249.408 592.15 249.408 592.503C249.408 592.889 249.718 593.201 250.109 593.201L250.203 593.195C250.541 593.149 250.801 592.857 250.801 592.503ZM246.013 591.806C246.395 591.806 246.705 592.118 246.705 592.503C246.705 592.857 246.445 593.149 246.107 593.195L246.013 593.201C245.622 593.201 245.312 592.889 245.312 592.503C245.312 592.15 245.572 591.858 245.91 591.812L246.013 591.806ZM242.6 592.503C242.6 592.118 242.29 591.806 241.908 591.806L241.806 591.812C241.468 591.858 241.207 592.15 241.207 592.503C241.207 592.889 241.517 593.201 241.9 593.201L242.002 593.195C242.34 593.149 242.6 592.857 242.6 592.503ZM250.109 595.421C250.491 595.421 250.801 595.734 250.801 596.119C250.801 596.472 250.541 596.764 250.203 596.81L250.109 596.817C249.718 596.817 249.408 596.504 249.408 596.119C249.408 595.766 249.668 595.474 250.006 595.428L250.109 595.421ZM246.705 596.119C246.705 595.734 246.395 595.421 246.013 595.421L245.91 595.428C245.572 595.474 245.312 595.766 245.312 596.119C245.312 596.504 245.622 596.817 246.013 596.817L246.107 596.81C246.445 596.764 246.705 596.472 246.705 596.119ZM241.908 595.421C242.29 595.421 242.6 595.734 242.6 596.119C242.6 596.472 242.34 596.764 242.002 596.81L241.9 596.817C241.517 596.817 241.207 596.504 241.207 596.119C241.207 595.766 241.468 595.474 241.806 595.428L241.908 595.421Z" fill="#4AD594"/>
<path d="M141.529 522.285L136.603 504.831H140.004L143.149 517.657H143.311L146.668 504.831H149.762L153.129 517.666H153.282L156.427 504.831H159.828L154.901 522.285H151.782L148.288 510.038H148.151L144.649 522.285H141.529ZM165.543 522.541C164.231 522.541 163.097 522.268 162.143 521.723C161.194 521.172 160.464 520.393 159.952 519.387C159.441 518.376 159.185 517.186 159.185 515.816C159.185 514.47 159.441 513.288 159.952 512.271C160.469 511.248 161.191 510.453 162.117 509.885C163.043 509.311 164.131 509.024 165.381 509.024C166.188 509.024 166.949 509.154 167.665 509.416C168.387 509.672 169.023 510.069 169.574 510.609C170.131 511.149 170.569 511.836 170.887 512.672C171.205 513.501 171.364 514.49 171.364 515.637V516.583H160.634V514.504H168.407C168.401 513.913 168.273 513.387 168.023 512.927C167.773 512.461 167.424 512.095 166.975 511.828C166.532 511.561 166.015 511.427 165.424 511.427C164.793 511.427 164.239 511.581 163.762 511.887C163.285 512.189 162.913 512.586 162.645 513.081C162.384 513.569 162.251 514.106 162.245 514.691V516.507C162.245 517.268 162.384 517.922 162.663 518.467C162.941 519.007 163.33 519.422 163.83 519.711C164.33 519.995 164.915 520.137 165.586 520.137C166.035 520.137 166.441 520.075 166.805 519.95C167.168 519.819 167.484 519.629 167.751 519.379C168.018 519.129 168.219 518.819 168.356 518.45L171.236 518.774C171.055 519.535 170.708 520.2 170.197 520.768C169.691 521.331 169.043 521.768 168.253 522.081C167.464 522.387 166.56 522.541 165.543 522.541ZM176.26 504.831V522.285H173.174V504.831H176.26ZM184.342 522.541C183.036 522.541 181.913 522.254 180.976 521.68C180.044 521.106 179.325 520.314 178.82 519.302C178.32 518.285 178.07 517.115 178.07 515.791C178.07 514.461 178.325 513.288 178.837 512.271C179.348 511.248 180.07 510.453 181.001 509.885C181.939 509.311 183.047 509.024 184.325 509.024C185.388 509.024 186.328 509.22 187.146 509.612C187.97 509.998 188.626 510.547 189.115 511.257C189.604 511.961 189.882 512.785 189.95 513.728H187.001C186.882 513.098 186.598 512.572 186.149 512.152C185.706 511.725 185.112 511.512 184.368 511.512C183.737 511.512 183.183 511.683 182.706 512.024C182.229 512.359 181.857 512.842 181.589 513.473C181.328 514.103 181.197 514.859 181.197 515.74C181.197 516.632 181.328 517.399 181.589 518.041C181.851 518.677 182.217 519.169 182.689 519.515C183.166 519.856 183.726 520.027 184.368 520.027C184.822 520.027 185.229 519.941 185.587 519.771C185.95 519.595 186.254 519.342 186.499 519.012C186.743 518.683 186.911 518.282 187.001 517.811H189.95C189.876 518.737 189.604 519.558 189.132 520.274C188.661 520.984 188.018 521.541 187.206 521.944C186.393 522.342 185.439 522.541 184.342 522.541ZM197.394 522.541C196.115 522.541 195.008 522.26 194.07 521.697C193.133 521.135 192.405 520.348 191.888 519.336C191.377 518.325 191.121 517.143 191.121 515.791C191.121 514.439 191.377 513.254 191.888 512.237C192.405 511.22 193.133 510.43 194.07 509.868C195.008 509.305 196.115 509.024 197.394 509.024C198.672 509.024 199.78 509.305 200.718 509.868C201.655 510.43 202.38 511.22 202.891 512.237C203.408 513.254 203.667 514.439 203.667 515.791C203.667 517.143 203.408 518.325 202.891 519.336C202.38 520.348 201.655 521.135 200.718 521.697C199.78 522.26 198.672 522.541 197.394 522.541ZM197.411 520.069C198.104 520.069 198.684 519.879 199.15 519.498C199.615 519.112 199.962 518.595 200.189 517.947C200.422 517.299 200.539 516.578 200.539 515.782C200.539 514.981 200.422 514.257 200.189 513.609C199.962 512.956 199.615 512.436 199.15 512.049C198.684 511.663 198.104 511.47 197.411 511.47C196.701 511.47 196.11 511.663 195.638 512.049C195.172 512.436 194.823 512.956 194.59 513.609C194.363 514.257 194.249 514.981 194.249 515.782C194.249 516.578 194.363 517.299 194.59 517.947C194.823 518.595 195.172 519.112 195.638 519.498C196.11 519.879 196.701 520.069 197.411 520.069ZM205.485 522.285V509.194H208.434V511.419H208.588C208.86 510.669 209.312 510.083 209.943 509.663C210.573 509.237 211.326 509.024 212.201 509.024C213.088 509.024 213.835 509.24 214.443 509.672C215.056 510.098 215.488 510.68 215.738 511.419H215.874C216.164 510.691 216.653 510.112 217.34 509.68C218.034 509.243 218.855 509.024 219.803 509.024C221.008 509.024 221.991 509.404 222.752 510.166C223.514 510.927 223.894 512.038 223.894 513.498V522.285H220.801V513.975C220.801 513.163 220.585 512.569 220.153 512.194C219.721 511.814 219.193 511.623 218.568 511.623C217.823 511.623 217.241 511.856 216.82 512.322C216.406 512.782 216.198 513.382 216.198 514.12V522.285H213.173V513.848C213.173 513.172 212.968 512.632 212.559 512.228C212.156 511.825 211.627 511.623 210.974 511.623C210.531 511.623 210.127 511.737 209.764 511.964C209.4 512.186 209.11 512.501 208.894 512.91C208.678 513.314 208.57 513.785 208.57 514.325V522.285H205.485ZM232.02 522.541C230.707 522.541 229.574 522.268 228.619 521.723C227.67 521.172 226.94 520.393 226.429 519.387C225.917 518.376 225.662 517.186 225.662 515.816C225.662 514.47 225.917 513.288 226.429 512.271C226.946 511.248 227.667 510.453 228.594 509.885C229.52 509.311 230.608 509.024 231.858 509.024C232.665 509.024 233.426 509.154 234.142 509.416C234.863 509.672 235.5 510.069 236.051 510.609C236.608 511.149 237.045 511.836 237.363 512.672C237.682 513.501 237.841 514.49 237.841 515.637V516.583H227.111V514.504H234.883C234.878 513.913 234.75 513.387 234.5 512.927C234.25 512.461 233.9 512.095 233.452 511.828C233.008 511.561 232.491 511.427 231.9 511.427C231.27 511.427 230.716 511.581 230.238 511.887C229.761 512.189 229.389 512.586 229.122 513.081C228.861 513.569 228.727 514.106 228.721 514.691V516.507C228.721 517.268 228.861 517.922 229.139 518.467C229.417 519.007 229.807 519.422 230.307 519.711C230.807 519.995 231.392 520.137 232.062 520.137C232.511 520.137 232.917 520.075 233.281 519.95C233.645 519.819 233.96 519.629 234.227 519.379C234.494 519.129 234.696 518.819 234.832 518.45L237.713 518.774C237.531 519.535 237.185 520.2 236.673 520.768C236.167 521.331 235.52 521.768 234.73 522.081C233.94 522.387 233.037 522.541 232.02 522.541Z" fill="white"/>
<defs>
<clipPath id="clip0_122_5565">
<rect width="66.32" height="67.34" fill="white" transform="translate(154 323)"/>
</clipPath>
</defs>
</svg>
